<svg width="380" height="20" viewBox="0 0 380 20" fill="none" xmlns="http://www.w3.org/2000/svg">
<rect y="9.5" width="167.5" height="1" fill="#01095F" fill-opacity="0.12"/>
<path d="M187.588 7.832C189.674 7.832 191.2 9.386 191.2 11.5C191.2 13.614 189.674 15.14 187.588 15.14C185.502 15.14 183.99 13.614 183.99 11.5C183.99 9.386 185.502 7.832 187.588 7.832ZM187.588 9.05C186.3 9.05 185.376 10.086 185.376 11.5C185.376 12.9 186.3 13.922 187.588 13.922C188.876 13.922 189.814 12.9 189.814 11.5C189.814 10.086 188.876 9.05 187.588 9.05ZM196.071 7.832V9.204H195.945C195.077 9.204 194.517 9.694 194.041 10.38V15H192.669V7.972H193.915L193.985 8.924C194.335 8.364 195.035 7.832 196.071 7.832Z" fill="#747778"/>
<rect x="212.5" y="9.5" width="167.5" height="1" fill="#01095F" fill-opacity="0.12"/>
</svg>
