<svg width="142" height="80" viewBox="0 0 142 80" fill="none" xmlns="http://www.w3.org/2000/svg">
<g clip-path="url(#clip0_732_11882)">
<path d="M90.5365 34.2326C92.3663 36.5897 96.2786 38.2176 100.808 38.2176C107.089 38.2176 112.181 35.0943 112.181 31.2289C112.181 27.3636 107.09 24.25 100.808 24.25C96.8361 24.25 93.3371 25.5045 91.3128 27.3862C91.0713 27.6061 90.8574 27.8389 90.6548 28.0782C89.8234 29.0029 89.0082 29.9599 88.0374 29.9599H53.9478C52.9851 29.9599 52.1683 29.0029 51.3191 28.0717C51.1165 27.8389 50.8944 27.6061 50.6821 27.3862C48.6449 25.5045 45.1475 24.25 41.1816 24.25C34.9015 24.25 29.8125 27.3798 29.8125 31.2289C29.8125 35.0781 34.9015 38.2176 41.1816 38.2176C45.7082 38.2176 49.6222 36.5897 51.452 34.2326C52.2104 33.4178 53.0807 32.5707 53.7306 32.519H88.253C88.9191 32.5707 89.7732 33.4162 90.5349 34.2326" fill="#1C2F5B"/>
<path d="M120.352 21.879C122.182 24.2296 126.091 25.8543 130.615 25.8543C136.898 25.8543 142 22.7326 142 18.8657C142 14.9987 136.898 11.8867 130.615 11.8867C126.655 11.8867 123.155 13.138 121.126 15.0197C120.889 15.2428 120.67 15.4756 120.474 15.7052C119.634 16.6331 118.821 17.5934 117.855 17.5934H83.7573C82.8108 17.5934 82.0215 16.6929 81.2014 15.7844C79.3425 13.4726 75.4707 11.8867 70.9895 11.8867C67.0334 11.8867 63.5424 13.138 61.5003 15.0197C61.2815 15.2428 61.0676 15.4756 60.8504 15.7052C60.0109 16.6331 59.2006 17.5934 58.2314 17.5934H24.1418C23.1678 17.5934 22.3493 16.6331 21.513 15.7052C21.2991 15.4756 21.0803 15.2428 20.8696 15.0197C18.834 13.138 15.3398 11.8867 11.374 11.8867C5.09545 11.8883 0 15.0116 0 18.8673C0 22.7229 5.09545 25.8559 11.3756 25.8559C15.9006 25.8559 19.8178 24.2312 21.6476 21.8807C22.4077 21.0562 23.2666 20.2042 23.9262 20.1525H58.4486C59.1114 20.2042 59.9639 21.0562 60.7337 21.8807C62.5635 24.2312 66.4677 25.8559 70.9895 25.8559C75.5112 25.8559 79.4916 24.2118 81.3035 21.8354C82.0588 21.0287 82.8853 20.2042 83.5368 20.1525H118.071C118.729 20.2042 119.584 21.0562 120.352 21.8807" fill="#005D94"/>
<path d="M90.5365 9.98747C92.3663 12.3413 96.2786 13.9692 100.808 13.9692C107.089 13.9692 112.181 10.8459 112.181 6.98056C112.181 3.11522 107.089 0 100.808 0C96.8361 0 93.3371 1.24803 91.3128 3.14271C91.0713 3.35772 90.8574 3.59213 90.6548 3.8233C89.8234 4.75286 89.0082 5.70181 88.0374 5.70181H53.9478C52.9851 5.70181 52.1683 4.75124 51.3191 3.8233C51.1165 3.59213 50.8944 3.34802 50.6821 3.14271C48.6449 1.24803 45.1475 0 41.1816 0C34.9015 0 29.8125 3.12007 29.8125 6.98218C29.8125 10.8443 34.9015 13.9708 41.1816 13.9708C45.7082 13.9708 49.6222 12.3413 51.452 9.98909C52.2104 9.16461 53.0807 8.32074 53.7306 8.26092H88.253C88.9191 8.32074 89.7732 9.16461 90.5349 9.98909" fill="#1396D3"/>
<path d="M50.936 79.988H49.5244C46.0318 79.988 46.0318 76.6853 46.0318 76.6853H47.4353C47.4353 76.6853 47.4353 78.6689 49.5244 78.6689H50.936C53.0218 78.6689 53.0218 76.4638 53.0218 76.4638V75.8948C53.0218 75.8948 53.0381 73.9257 50.936 73.9257H49.5244C45.9038 73.9257 46.0318 70.699 46.0318 70.699C46.0318 70.699 46.0318 67.498 49.5244 67.498H50.6913C54.1839 67.498 54.1839 70.7798 54.1839 70.7798H52.7933C52.7933 70.7798 52.7933 68.8075 50.6913 68.8075H49.5244C47.4353 68.8075 47.4353 70.699 47.4353 70.699C47.4353 70.699 47.3073 72.8879 49.5244 72.6114H50.936C54.4724 72.6114 54.4286 75.8931 54.4286 75.8931V76.4622C54.4286 76.4622 54.4286 79.9864 50.936 79.9864" fill="#58595B"/>
<path d="M85.7011 79.9996H84.3106C81.4922 79.9996 81.4922 77.3419 81.4922 77.3419V73.3634C81.4922 73.3634 81.4922 70.7461 84.3106 70.7461H85.7011C88.526 70.7461 88.526 73.3634 88.526 73.3634V77.3419C88.526 77.3419 88.526 79.9996 85.7011 79.9996ZM87.1063 76.5983V73.3634C87.1063 73.3634 87.1063 72.0556 85.7011 72.0556H84.3106C82.9038 72.0556 82.9038 73.3634 82.9038 73.3634V77.3419C82.9038 77.3419 82.9038 78.6481 84.2911 78.6481H85.7011C87.1063 78.6481 87.1063 77.3419 87.1063 77.3419V76.5983Z" fill="#58595B"/>
<path d="M95.7153 79.9871V73.3509C95.7153 73.3509 95.6893 72.0705 94.2988 72.0705H92.8985C91.5031 72.0705 91.5031 73.3832 91.5031 73.3832V79.9855H90.0898V73.3832C90.0898 73.3832 90.0898 70.7578 92.8985 70.7578H94.2988C97.0993 70.7578 97.0993 73.3832 97.0993 73.3832V79.9855H95.7153V79.9871Z" fill="#58595B"/>
<path d="M61.4102 72.0521V77.3546C61.4102 77.3546 61.4102 79.9816 64.2058 79.9816H65.598V78.6462H64.1718C62.778 78.6462 62.8234 77.45 62.8234 77.45V67.498H61.4102V72.0521Z" fill="#58595B"/>
<path d="M57.7597 69.2359C58.246 69.2359 58.6317 68.8431 58.6317 68.3629C58.6317 67.8828 58.2443 67.498 57.7597 67.498C57.2752 67.498 56.8878 67.8828 56.8878 68.3629C56.8878 68.8431 57.2784 69.2359 57.7597 69.2359ZM57.0726 70.7329V78.6737H55.3125V79.9832H60.2199V78.6737H58.4615V70.7329H57.0742H57.0726Z" fill="#58595B"/>
<path d="M69.4478 69.2359C69.9292 69.2359 70.3149 68.8431 70.3149 68.3629C70.3149 67.8828 69.9292 67.498 69.4478 67.498C68.9665 67.498 68.5662 67.8828 68.5662 68.3629C68.5662 68.8431 68.9616 69.2359 69.4478 69.2359ZM68.7509 70.7329V78.6737H66.9844V79.9832H71.8999V78.6737H70.1431L70.1382 70.7329H68.7509Z" fill="#58595B"/>
<path d="M78.6748 77.6187C78.5824 77.997 78.294 78.634 77.3102 78.634H75.9132C74.5178 78.634 74.5178 77.4312 74.5178 77.4312V73.3622C74.5178 73.3622 74.5178 72.0705 75.9132 72.0705H77.3102C78.294 72.0705 78.5824 72.6978 78.6748 73.0857H80.0881C79.9941 72.4035 79.5322 70.7578 77.3102 70.7578H75.9132C73.1094 70.7578 73.1094 73.3751 73.1094 73.3751V77.4312C73.1094 77.4312 73.1094 79.9871 75.9132 79.9871H77.3102C79.5419 79.9871 79.9941 78.3026 80.0881 77.6187H78.6748Z" fill="#58595B"/>
<path d="M4.90907 79.9816H0V67.498H4.90907C8.4049 67.498 8.4049 70.7701 8.4049 70.7701V76.6772C8.4049 76.6772 8.4049 79.98 4.90907 79.98M7.01759 70.7701C7.01759 70.7701 6.9949 68.8075 4.90907 68.8075H1.41324V78.6705H4.90907C6.9949 78.6705 7.01759 76.6772 7.01759 76.6772V70.7701Z" fill="#58595B"/>
<path d="M38.0436 69.2359C38.5298 69.2359 38.9139 68.8431 38.9139 68.3629C38.9139 67.8828 38.5298 67.498 38.0436 67.498C37.5574 67.498 37.1619 67.8828 37.1619 68.3629C37.1619 68.8431 37.559 69.2359 38.0436 69.2359ZM37.3467 70.7329V78.6737H35.5898V79.9832H40.4973V78.6737H38.7453L38.734 70.7329H37.3467Z" fill="#58595B"/>
<path d="M15.6978 70.7454V77.3542C15.6978 77.3542 15.6978 78.6458 14.2927 78.6458H12.8973C11.5116 78.6458 11.5116 77.3881 11.5116 77.3881V70.7454H10.1016V77.3542C10.1016 77.3542 10.1016 79.986 12.8973 79.986H14.2927C14.8761 79.986 15.3299 79.8567 15.6978 79.6869V79.9812H17.111V70.7422H15.6978V70.7454Z" fill="#58595B"/>
<path d="M23.0104 70.7458H21.6036C21.0234 70.7458 20.5161 70.9269 20.2098 71.2599V67.498H18.8047V79.9816H20.2098V79.6987C20.5761 79.8684 21.0299 79.988 21.6036 79.988H23.0104C25.7915 79.988 25.8158 77.3433 25.8158 77.3433V73.3696C25.8158 73.3696 25.8158 70.7458 23.0104 70.7458ZM24.4204 77.3433C24.4204 77.3433 24.4204 78.6349 23.0104 78.6349H21.6036C20.2098 78.6349 20.2098 77.3433 20.2098 77.3433V73.3696C20.2098 73.3696 20.2098 72.0537 21.6036 72.0537H23.0104C24.4204 72.0537 24.4204 73.3696 24.4204 73.3696V77.3433Z" fill="#58595B"/>
<path d="M34.198 73.3837C34.198 73.3837 34.198 70.7324 31.3926 70.7324H30.2662C28.0281 70.7324 27.5743 72.4024 27.4722 73.0846H28.8773C28.9648 72.6934 29.2663 72.0694 30.2679 72.0694H31.3942C32.8075 72.0694 32.8075 73.3821 32.8075 73.3821V74.0627H29.9842C27.2031 74.0627 27.2031 76.667 27.2031 76.667V77.3525C27.2031 77.3525 27.2031 79.9827 30.0004 79.9827H31.3764C31.9696 79.9827 32.4363 79.8566 32.8091 79.6756V79.9795H34.1964V73.3821L34.198 73.3837ZM32.8107 77.3541C32.8107 77.3541 32.8107 78.649 31.3942 78.649H30.0021C28.6164 78.649 28.6164 77.3945 28.6164 77.3945V76.6509C28.6164 76.6509 28.6164 75.3931 29.9858 75.3931H32.8091L32.8123 76.0026V77.3557L32.8107 77.3541Z" fill="#58595B"/>
<path d="M107.527 79.9861H106.136C102.641 79.9861 102.641 76.6979 102.641 76.6979V70.7568C102.641 70.7568 102.641 67.4961 106.136 67.4961H107.527C111.018 67.4961 111.018 70.7568 111.018 70.7568V76.6979C111.018 76.6979 111.018 79.9861 107.527 79.9861ZM109.613 70.7584C109.613 70.7584 109.613 68.8088 107.527 68.8088H106.136C104.031 68.8088 104.031 70.7584 104.031 70.7584V76.6995C104.031 76.6995 104.031 78.6685 106.136 78.6685H107.527C109.613 78.6685 109.613 76.6995 109.613 76.6995V70.7584Z" fill="#58595B"/>
<path d="M131.556 69.2359C132.034 69.2359 132.423 68.8431 132.423 68.3629C132.423 67.8828 132.033 67.498 131.556 67.498C131.08 67.498 130.675 67.8828 130.675 68.3629C130.675 68.8431 131.078 69.2359 131.556 69.2359ZM130.861 70.7329V78.6737H129.098V79.9832H134.013V78.6737H132.247V70.7329H130.863H130.861Z" fill="#58595B"/>
<path d="M125.33 74.4502H123.92C122.529 74.4502 122.529 73.2506 122.529 73.2506C122.529 73.2506 122.547 72.0705 123.92 72.0705H125.174C126.144 72.0705 126.439 72.6978 126.528 73.0857H127.972C127.873 72.4035 127.408 70.7578 125.174 70.7578H123.92C121.121 70.7578 121.121 73.2523 121.121 73.2523C121.121 73.2523 121.121 75.7871 123.92 75.7871H125.33C126.737 75.7871 126.721 77.1127 126.721 77.1127C126.721 77.1127 126.721 78.6324 125.33 78.6324H123.92C122.954 78.6324 122.658 78.0051 122.567 77.6268H121.145C121.235 78.3042 121.682 79.9612 123.92 79.9612H125.33C128.204 79.9612 128.131 77.095 128.131 77.095C128.131 77.095 128.131 74.4534 125.33 74.4534" fill="#58595B"/>
<path d="M139.199 74.4502H137.781C136.394 74.4502 136.394 73.2506 136.394 73.2506C136.394 73.2506 136.412 72.0705 137.781 72.0705H139.047C140.005 72.0705 140.301 72.6978 140.39 73.0857H141.828C141.734 72.4035 141.267 70.7578 139.047 70.7578H137.781C134.98 70.7578 134.98 73.2523 134.98 73.2523C134.98 73.2523 134.98 75.7871 137.781 75.7871H139.199C140.598 75.7871 140.586 77.1127 140.586 77.1127C140.586 77.1127 140.586 78.6324 139.199 78.6324H137.781C136.812 78.6324 136.52 78.0051 136.425 77.6268H135.008C135.097 78.3042 135.551 79.9612 137.781 79.9612H139.199C142.068 79.9612 141.996 77.095 141.996 77.095C141.996 77.095 141.996 74.4534 139.199 74.4534" fill="#58595B"/>
<path d="M119.569 73.3837C119.569 73.3837 119.569 70.7324 116.769 70.7324H115.647C113.416 70.7324 112.947 72.4024 112.853 73.0846H114.263C114.346 72.6934 114.647 72.0694 115.647 72.0694H116.769C118.19 72.0694 118.19 73.3821 118.19 73.3821V74.0627H115.369C112.586 74.0627 112.586 76.667 112.586 76.667V77.3525C112.586 77.3525 112.586 79.9827 115.385 79.9827H116.754C117.359 79.9827 117.822 79.8566 118.19 79.6756V79.9795H119.569V73.3821V73.3837ZM118.19 77.3541C118.19 77.3541 118.19 78.649 116.777 78.649H115.385C113.996 78.649 113.996 77.3945 113.996 77.3945V76.6509C113.996 76.6509 113.996 75.3931 115.369 75.3931H118.19V77.3557V77.3541Z" fill="#58595B"/>
<path d="M103.308 53.1328H98.9922V54.3728H103.308C103.308 54.3728 104.449 54.3728 104.449 55.5885V58.7732C104.449 59.9905 103.334 60.0051 103.334 60.0051H98.9922V61.2288H103.308C103.308 61.2288 105.603 61.2288 105.603 58.7748V55.5901C105.603 53.136 103.308 53.136 103.308 53.136" fill="#58595B"/>
<path d="M85.897 53.1328V58.93C85.897 58.93 85.897 60.0616 84.6685 60.0616H78.6103C77.4013 60.0616 77.4013 58.9543 77.4013 58.9543V53.1328H76.168V58.93C76.168 58.93 76.168 61.2321 78.6103 61.2321H84.6685C87.1255 61.2321 87.1255 58.93 87.1255 58.93V54.3711H90.4673V58.93C90.4673 58.93 90.4673 61.2321 92.9081 61.2321H95.0231C97.4768 61.2321 97.4768 58.93 97.4768 58.93V53.1328H96.2467V58.93C96.2467 58.93 96.2467 60.0616 95.0231 60.0616H92.9081C91.6942 60.0616 91.6942 58.9543 91.6942 58.9543V53.1328H85.897Z" fill="#58595B"/>
<path d="M80.6875 62.5156C80.2596 62.5156 79.9258 62.8632 79.9258 63.2851C79.9258 63.7071 80.2596 64.0466 80.6875 64.0466C81.1154 64.0466 81.4492 63.7135 81.4492 63.2851C81.4492 62.8567 81.1024 62.5156 80.6875 62.5156Z" fill="#58595B"/>
<path d="M82.5957 62.5156C82.171 62.5156 81.8242 62.8632 81.8242 63.2851C81.8242 63.7071 82.171 64.0466 82.5957 64.0466C83.0203 64.0466 83.3477 63.7135 83.3477 63.2851C83.3477 62.8567 83.0106 62.5156 82.5957 62.5156Z" fill="#58595B"/>
<path d="M93.9678 62.5156C93.5529 62.5156 93.2109 62.8632 93.2109 63.2851C93.2109 63.7071 93.5513 64.0466 93.9678 64.0466C94.3843 64.0466 94.7328 63.7135 94.7328 63.2851C94.7328 62.8567 94.3892 62.5156 93.9678 62.5156Z" fill="#58595B"/>
<path d="M38.1087 62.5156C37.6792 62.5156 37.3438 62.8632 37.3438 63.2851C37.3438 63.7071 37.6792 64.0466 38.1087 64.0466C38.5382 64.0466 38.8656 63.7135 38.8656 63.2851C38.8656 62.8567 38.5236 62.5156 38.1087 62.5156Z" fill="#58595B"/>
<path d="M40.0085 62.5156C39.5822 62.5156 39.25 62.8632 39.25 63.2851C39.25 63.7071 39.5822 64.0466 40.0085 64.0466C40.4347 64.0466 40.767 63.7135 40.767 63.2851C40.767 62.8567 40.4266 62.5156 40.0085 62.5156Z" fill="#58595B"/>
<path d="M9.79059 60.9929C9.79059 62.8164 8.07104 62.8326 8.07104 62.8326H2.88159C2.88159 62.8326 1.14097 62.8164 1.14097 60.9929V55.582H0V60.9929C0 64.0531 2.88159 64.0531 2.88159 64.0531H8.07104C8.07104 64.0531 10.938 64.0531 10.938 60.9929V55.582H9.79059V60.9929Z" fill="#58595B"/>
<path d="M5.43979 57.1178C5.86603 57.1178 6.20476 56.7702 6.20476 56.3483C6.20476 55.9264 5.86603 55.582 5.43979 55.582C5.01355 55.582 4.67969 55.9215 4.67969 56.3483C4.67969 56.7751 5.02327 57.1178 5.43979 57.1178Z" fill="#58595B"/>
<path d="M27.7302 62.5156C27.3153 62.5156 26.9766 62.8632 26.9766 63.2851C26.9766 63.7071 27.3153 64.0466 27.7302 64.0466C28.1451 64.0466 28.4952 63.7135 28.4952 63.2851C28.4952 62.8567 28.1532 62.5156 27.7302 62.5156Z" fill="#58595B"/>
<path d="M29.6432 62.5156C29.2137 62.5156 28.875 62.8632 28.875 63.2851C28.875 63.7071 29.2121 64.0466 29.6432 64.0466C30.0743 64.0466 30.4017 63.7135 30.4017 63.2851C30.4017 62.8567 30.0581 62.5156 29.6432 62.5156Z" fill="#58595B"/>
<path d="M70.0446 50.3014V58.9002C70.0446 58.9002 70.0446 60.0431 68.8178 60.0431H67.6039C66.3932 60.0431 66.3932 58.9374 66.3932 58.9374V50.2998H65.1615V58.8986C65.1615 58.8986 65.1615 60.0415 63.9314 60.0415H62.7207C61.5101 60.0415 61.5101 58.9358 61.5101 58.9358V53.1305H60.2751V58.8986C60.2751 58.8986 60.2751 60.0415 59.045 60.0415H57.8344C56.6188 60.0415 56.6188 58.9358 56.6188 58.9358V53.1305H55.3887V58.8986C55.3887 58.8986 55.3887 60.0415 54.1602 60.0415H52.9512C51.7406 60.0415 51.7406 58.9358 51.7406 58.9358V53.1305H50.4991V58.8986C50.4991 58.8986 50.4991 60.0415 49.2739 60.0415H43.2271C42.0148 60.0415 42.0148 58.9358 42.0148 58.9358V53.1305H40.7815V58.8986C40.7815 58.8986 40.7815 60.0415 39.5432 60.0415H38.3326C37.1219 60.0415 37.1219 58.9358 37.1219 58.9358V50.2982H35.8951V58.897C35.8951 58.897 35.8951 60.0399 34.6634 60.0399H33.4495C32.2388 60.0399 32.2388 58.9341 32.2388 58.9341V53.1289H31.0087V58.897C31.0087 58.897 31.0087 60.0399 29.7818 60.0399H27.6004C26.3897 60.0399 26.3897 58.9341 26.3897 58.9341V54.3462H25.1629V54.3494H21.0204C21.0204 54.3494 19.8908 54.3494 19.8908 53.1062V52.749C19.8908 51.5252 20.988 51.5252 20.988 51.5252H28.6976V50.2965H21.0204C21.0204 50.2965 18.7255 50.2965 18.7255 52.749V53.1062C18.7255 55.5797 21.0204 55.5796 21.0204 55.5796H25.1629V58.9131C25.1564 59.0376 25.0851 60.0367 23.9344 60.0367H19.7773V58.4508C19.7773 58.4508 19.7773 55.578 16.7256 55.578H15.4776C12.4502 55.578 12.4502 58.4508 12.4502 58.4508V61.2249H18.5456L18.5423 61.7519C18.5423 61.7519 18.5423 62.8819 17.309 62.8819H12.4453V64.0491H17.309C19.7757 64.0491 19.7757 61.7519 19.7757 61.7519V61.2006H23.9328C24.8403 61.2006 25.4092 60.8838 25.7722 60.4845C26.1304 60.8822 26.6944 61.2006 27.5988 61.2006H29.7802C30.691 61.2006 31.2534 60.8838 31.6213 60.4845C31.9811 60.8822 32.55 61.2006 33.4495 61.2006H34.6634C35.5742 61.2006 36.143 60.8838 36.5012 60.4845C36.8642 60.8822 37.4282 61.2006 38.331 61.2006H39.5416C40.4508 61.2006 41.0294 60.8838 41.386 60.4845C41.7474 60.8822 42.313 61.2006 43.2271 61.2006H49.2739C50.1815 61.2006 50.7568 60.8838 51.1166 60.4845C51.4731 60.8822 52.0452 61.2006 52.9496 61.2006H54.1586C55.0727 61.2006 55.6432 60.8838 56.003 60.4845C56.3595 60.8822 56.9219 61.2006 57.8327 61.2006H59.0434C59.9558 61.2006 60.5279 60.8838 60.8845 60.4845C61.2475 60.8822 61.8099 61.2006 62.7207 61.2006H63.9314C64.8438 61.2006 65.4095 60.8838 65.7757 60.4845C66.1323 60.8822 66.6995 61.2006 67.6039 61.2006H68.8178C71.2699 61.2006 71.2699 58.8937 71.2699 58.8937V50.2949H70.0463L70.0446 50.3014ZM18.544 60.0625H13.6754V58.4572C13.6754 58.4572 13.6754 56.7355 15.4744 56.7355H16.7223C18.5423 56.7355 18.5423 58.4572 18.5423 58.4572V60.0625H18.544Z" fill="#58595B"/>
<path d="M112.601 51.8249C113.02 51.8249 113.366 51.4838 113.366 51.0619C113.366 50.6399 113.02 50.2988 112.601 50.2988C112.183 50.2988 111.84 50.6399 111.84 51.0619C111.84 51.4838 112.183 51.8249 112.601 51.8249ZM114.507 51.8249C114.932 51.8249 115.264 51.4838 115.264 51.0619C115.264 50.6399 114.932 50.2988 114.507 50.2988C114.083 50.2988 113.742 50.6399 113.742 51.0619C113.742 51.4838 114.089 51.8249 114.507 51.8249ZM130.395 59.9694C125.499 58.1378 122.337 53.1796 122.3 53.1311C122.3 53.1311 118.765 53.1311 118.765 56.1963H119.992C119.992 54.578 121.332 54.3727 121.643 54.3517C122.468 55.506 124.559 58.154 127.602 59.9824H116.601V53.1311H115.379V53.3866C115.057 53.2281 114.668 53.1311 114.167 53.1311H112.937C110.507 53.1311 110.496 55.4494 110.496 55.4494V58.8944C110.496 58.8944 110.496 61.2013 112.937 61.2013H114.167C114.674 61.2013 115.117 61.0283 115.379 60.7325V61.2062L130.406 61.211L130.398 59.9694H130.392H130.395ZM115.382 58.8944C115.382 58.8944 115.382 60.0487 114.17 60.0487H112.94C111.71 60.0487 111.71 58.8944 111.71 58.8944V55.4494C111.71 55.4494 111.71 54.3145 112.94 54.3145H114.17C115.382 54.3145 115.382 55.4494 115.382 55.4494V58.8944ZM138.949 53.1311H137.704C134.67 53.1311 134.67 56.0103 134.67 56.0103V58.3043H140.772L140.764 58.9219C140.764 58.9219 140.764 60.0454 139.534 60.0454H134.667V61.2094H139.534C141.997 61.2094 141.997 58.9203 141.997 58.9203V56.0087C141.997 56.0087 141.997 53.1295 138.949 53.1295M140.774 57.1436H135.902V56.012C135.902 56.012 135.902 54.2854 137.706 54.2854H138.951C140.774 54.2854 140.774 56.012 140.774 56.012V57.1436ZM131.918 61.2126H133.148V50.2988H131.918V61.2126Z" fill="#58595B"/>
</g>
<defs>
<clipPath id="clip0_732_11882">
<rect width="142" height="80" fill="white"/>
</clipPath>
</defs>
</svg>
