<svg width="214" height="38" viewBox="0 0 214 38" fill="none" xmlns="http://www.w3.org/2000/svg">
<g clip-path="url(#clip0_12884_15011)">
<path d="M67.3609 16.4657C66.9488 16.4658 66.5474 16.5957 66.2144 16.8367C65.8814 17.0778 65.634 17.4175 65.5079 17.8069L60.14 33.5033L54.9922 17.7854C54.8661 17.402 54.6212 17.0679 54.2924 16.8309C53.9637 16.5939 53.5679 16.4661 53.1617 16.4657H49.9383L43.2323 37.2272H46.6227L52.2548 20.1777L57.8324 37.2272H62.4549L68.2493 20.1888L73.8774 37.2272H77.2678L70.5609 16.4657H67.3609Z" fill="#470054"/>
<path d="M103.893 37.2272H100.5L94.8775 20.1897L89.1875 37.2272H84.5642L78.9891 20.1769L76.2798 28.3552L74.5047 22.857L76.6734 16.4665H79.8991C80.305 16.4672 80.7003 16.5951 81.0287 16.8319C81.3571 17.0688 81.6019 17.4025 81.728 17.7855L86.875 33.5057L92.1353 17.8078C92.2614 17.4173 92.5087 17.0764 92.8418 16.8339C93.175 16.5914 93.5768 16.4597 93.9899 16.4578H97.1907L103.893 37.2272Z" fill="#470054"/>
<path d="M31.8298 15.6923C26.0403 15.6923 20.4338 17.5622 20.4338 27.0084C20.4338 36.4545 27.0539 37.9999 31.8298 37.9999C36.6058 37.9999 43.27 36.4242 43.27 27.0084C43.27 17.5925 37.6194 15.6923 31.8298 15.6923ZM31.8298 34.8908C26.2876 34.8908 23.89 31.8367 23.89 27.0084C23.89 22.18 25.5342 18.7511 31.8298 18.7511C38.1254 18.7511 39.8098 22.0532 39.8098 27.0084C39.8098 31.9635 37.368 34.8908 31.8298 34.8908Z" fill="#470054"/>
<path d="M111.835 34.4107C109.595 34.4107 108.118 33.4283 108.118 30.4324C108.118 29.4285 108.118 27.9222 108.118 27.9222H119.06V25.1607H108.189V19.287H121.336L120.896 16.4506H104.832C104.832 16.4506 104.832 30.2546 104.832 31.1166C104.832 33.4459 105.658 37.2264 111.097 37.2264H121.166L121.581 34.4099L111.835 34.4107Z" fill="#470054"/>
<path d="M137.934 29.8767C139.056 29.4912 140.06 28.8245 140.847 27.9412C141.634 27.0579 142.178 25.9878 142.426 24.8346C142.674 23.6814 142.619 22.4841 142.264 21.3586C141.91 20.233 141.269 19.2174 140.403 18.4099C138.989 17.1385 137.146 16.4392 135.238 16.4498H124.636V37.2265H127.859V19.3444H134.96C135.493 19.3097 136.028 19.3827 136.532 19.5589C137.036 19.7351 137.499 20.0109 137.893 20.3697C138.287 20.7284 138.604 21.1627 138.824 21.6463C139.044 22.1298 139.163 22.6526 139.174 23.1832C139.244 25.0834 138.662 27.565 133.712 27.565H131.895C131.895 27.565 132.003 29.4198 132.45 29.9469C134.438 32.2913 138.815 37.2273 138.815 37.2273H142.958C142.958 37.2273 138.802 32.5544 136.734 30.2339C137.192 30.0976 137.566 29.9947 137.934 29.8767Z" fill="#470054"/>
<path d="M3.46266 26.8712C3.56307 22.2765 5.29239 19.0517 11.3952 19.0517C11.4755 19.0517 12.0579 19.0517 18.3029 19.0557C18.3029 19.0557 18.0081 17.2575 17.9334 16.7998C17.8587 16.3421 17.8378 15.9952 16.9848 15.9952C11.5478 15.9952 11.4707 15.9952 11.3936 15.9952C5.76388 15.9952 0.309239 17.7695 0.0152619 26.5522H0C0 26.5905 0 26.6272 0 26.6662C0 26.7763 0.00562314 26.8799 0.00722957 26.9852C0.00722957 27.0554 0.00321307 27.1232 0.00240986 27.1941H0.0120493C0.258637 36.1635 6.71167 37.6546 11.396 37.6546C11.4763 37.6546 11.5567 37.6546 17.8049 37.6546L18.3053 34.5399C12.0579 34.5399 11.478 34.5479 11.3976 34.5479C5.94058 34.5479 3.53415 31.5783 3.46507 26.8728" fill="#470054"/>
<path d="M19.5679 4.02211C19.5679 3.96857 19.5573 3.91555 19.5366 3.86611C19.5159 3.81666 19.4856 3.77176 19.4474 3.73397C19.4092 3.69619 19.3638 3.66627 19.3139 3.64592C19.264 3.62558 19.2106 3.61521 19.1567 3.61542H18.3848C18.3848 3.61542 18.3848 8.39991 18.3848 8.84407C18.4073 9.47547 18.3159 10.1058 18.1149 10.7052C17.9977 11.0572 17.7955 11.3753 17.526 11.6319C17.2565 11.8885 16.9278 12.0757 16.5687 12.1773C15.8712 12.3844 15.1326 12.4151 14.4201 12.2666C13.9904 12.1864 13.5888 11.9974 13.2542 11.7181C12.9196 11.4387 12.6633 11.0783 12.5101 10.6717C12.3209 10.0909 12.2334 9.48217 12.2514 8.87198C12.2514 7.52754 12.2514 5.00452 12.2514 4.02131C12.2514 3.96777 12.2408 3.91475 12.2201 3.86531C12.1994 3.81586 12.1691 3.77096 12.1309 3.73318C12.0927 3.69539 12.0473 3.66547 11.9974 3.64513C11.9476 3.62478 11.8941 3.61442 11.8402 3.61463H11.0723C11.0723 3.61463 11.0603 7.39836 11.0723 9.26112C11.0716 9.91808 11.1877 10.57 11.4153 11.1869C11.6206 11.7071 11.9525 12.1688 12.3814 12.5306C12.8103 12.8924 13.3228 13.143 13.8731 13.2602C14.927 13.5074 16.0274 13.4799 17.0675 13.1804C17.5545 13.0543 18.003 12.8119 18.374 12.4743C18.745 12.1367 19.0272 11.7142 19.196 11.2435C19.4651 10.4881 19.5904 9.68959 19.5655 8.88873C19.5655 8.47248 19.5655 4.64728 19.5655 4.0245" fill="#A3AAC7"/>
<path d="M43.821 4.02131C43.821 3.96777 43.8104 3.91475 43.7897 3.86531C43.769 3.81586 43.7387 3.77096 43.7005 3.73318C43.6623 3.69539 43.6169 3.66547 43.5671 3.64513C43.5172 3.62478 43.4637 3.61442 43.4098 3.61463H42.6379V13.2713H43.821V4.02131Z" fill="#A3AAC7"/>
<path d="M33.1672 9.39034C33.1672 9.39034 34.0451 6.93271 34.3463 6.05635C34.462 5.70745 34.6195 5.37361 34.8154 5.06198C34.9296 4.90847 35.0784 4.78372 35.25 4.69775C35.4216 4.61178 35.6112 4.56699 35.8034 4.56699C35.9956 4.56699 36.1851 4.61178 36.3567 4.69775C36.5283 4.78372 36.6771 4.90847 36.7913 5.06198C36.9872 5.37357 37.1447 5.70743 37.2604 6.05635C37.5616 6.93351 38.4403 9.39034 38.4403 9.39034H33.1672ZM38.6291 6.41359C38.4283 5.86657 38.2275 5.31874 37.9736 4.79404C37.7922 4.38202 37.4899 4.03383 37.1063 3.79486C36.7226 3.5559 36.2752 3.43725 35.8226 3.45438H35.7897C35.3371 3.43725 34.8898 3.5559 34.5061 3.79486C34.1224 4.03383 33.8201 4.38202 33.6387 4.79404C33.3873 5.31874 33.1841 5.86736 32.9825 6.41359C32.2997 8.27715 30.4925 13.2714 30.4925 13.2714H31.7881L32.8041 10.4182H38.8058L39.8218 13.2714H41.1166C41.1166 13.2714 39.3094 8.28034 38.6267 6.41359" fill="#A3AAC7"/>
<path d="M27.4073 8.14643C27.772 8.2592 28.13 8.39231 28.4796 8.54514C28.8142 8.70519 29.1 8.9505 29.3078 9.25604C29.5157 9.56158 29.6382 9.91641 29.6628 10.2843C29.7424 10.8203 29.6529 11.3677 29.4065 11.8512C29.0931 12.4071 28.5749 12.8207 27.9607 13.0051C27.4587 13.1808 26.93 13.2698 26.3977 13.2682C24.7246 13.2682 21.331 13.2682 21.331 13.2682V3.61951H25.8451C28.6467 3.61951 29.0475 5.31003 28.9664 6.23583C28.9369 6.64769 28.7875 7.04217 28.5364 7.37132C28.2853 7.70046 27.9433 7.95008 27.5519 8.08982C27.5053 8.11055 27.4579 8.13048 27.4113 8.15281C27.4033 8.16956 27.4041 8.15281 27.4113 8.15281M22.5117 4.62265V12.2651C22.5117 12.2651 25.0113 12.2762 26.1945 12.2651C26.4883 12.2632 26.7812 12.2311 27.0684 12.1694C27.4398 12.1289 27.7847 11.9588 28.0416 11.6893C28.2984 11.4199 28.4505 11.0686 28.4708 10.6982C28.518 10.3704 28.457 10.0363 28.2969 9.74586C28.1367 9.45545 27.886 9.22441 27.5824 9.08738C27.151 8.88606 26.6792 8.78437 26.2025 8.78994H23.719V7.82268H25.6105C26.9945 7.82268 27.6378 7.08188 27.7455 6.32514C27.8435 5.63218 27.5527 4.61628 25.8981 4.61628C24.8017 4.61628 22.5511 4.61628 22.5085 4.61628" fill="#A3AAC7"/>
<path d="M0.867462 3.61389H5.17832C6.75745 3.61389 9.77031 4.2606 9.77031 8.46935C9.77031 12.2252 7.13576 13.2658 5.17832 13.2658H0.867462V3.61389ZM2.0514 12.2563H5.13334C5.86588 12.2563 8.57834 11.9556 8.57834 8.43984C8.57834 4.92404 5.98475 4.61784 5.13334 4.61784H2.05462L2.0514 12.2563Z" fill="#A3AAC7"/>
<path d="M169.029 21.3859H165.806V37.2273H169.029V21.3859Z" fill="#A3AAC7"/>
<path d="M210.943 16.4506C210.75 16.4326 210.556 16.4805 210.394 16.5865C210.232 16.6925 210.111 16.8502 210.051 17.0335C208.85 19.4625 207.628 21.8813 206.384 24.29C206.082 24.9028 205.697 25.4712 205.238 25.9789C205.002 26.2406 204.714 26.45 204.391 26.5933C204.068 26.7366 203.719 26.8107 203.365 26.8107C203.012 26.8107 202.662 26.7366 202.34 26.5933C202.017 26.45 201.729 26.2406 201.493 25.9789C201.034 25.4712 200.649 24.9028 200.347 24.29C199.099 21.8845 197.876 19.4656 196.679 17.0335C196.62 16.8502 196.499 16.6925 196.337 16.5865C196.175 16.4805 195.981 16.4326 195.788 16.4506H192.736C192.736 16.4506 196.403 23.6656 197.555 25.8202C198.487 27.5658 199.696 29.0514 201.76 29.6478V37.2233H204.979V29.6478C207.043 29.0498 208.252 27.565 209.184 25.8202C210.335 23.6672 214.003 16.4506 214.003 16.4506H210.943Z" fill="#A3AAC7"/>
<path d="M192.24 19.319C191.867 18.5686 191.491 17.7816 191.121 17.0336C191.061 16.8503 190.941 16.6927 190.778 16.5868C190.616 16.4808 190.423 16.4328 190.23 16.4507H155.917C150.287 16.4507 144.542 18.4235 144.542 27.014C144.542 35.6046 151.276 37.2273 155.917 37.2273C155.997 37.2273 156.078 37.2273 162.325 37.2273L162.825 34.1126C156.578 34.1126 155.998 34.1206 155.918 34.1206C150.605 34.1206 148.005 31.104 148.005 26.8115C148.005 22.519 150.048 19.3222 155.918 19.3222H180.508V37.2305H183.771V19.3198H192.242L192.24 19.319Z" fill="#A3AAC7"/>
<path d="M201.852 9.16785H200.998L201.153 9.64629C201.179 9.72842 201.231 9.80012 201.301 9.85101C201.371 9.90191 201.455 9.92935 201.542 9.92938H202.396L202.242 9.45093C202.215 9.36895 202.163 9.29743 202.093 9.24669C202.023 9.19595 201.939 9.16782 201.852 9.16785Z" fill="#470054"/>
<path d="M201.957 6.44632C201.957 7.11535 201.216 7.4399 199.797 7.4399H190.622L190.776 7.91835C190.802 8.00039 190.854 8.07199 190.924 8.12274C190.994 8.1735 191.079 8.20078 191.165 8.20063H195.327C195.758 8.1665 196.191 8.21856 196.601 8.35373C196.736 8.42808 196.847 8.53975 196.92 8.67528C196.994 8.81081 197.026 8.96444 197.013 9.11766C197.013 10.0602 196.248 10.3018 195.157 10.3018H185.76C183.942 10.3018 183.892 9.09772 183.892 8.20063C183.892 7.93824 183.952 7.67925 184.068 7.44347C184.184 7.20768 184.353 7.00135 184.561 6.84024C185.015 6.65537 185.503 6.56891 185.993 6.58666C185.917 6.34744 185.837 6.08828 185.837 6.08828C185.811 6.00572 185.759 5.93358 185.689 5.88237C185.618 5.83116 185.534 5.80356 185.446 5.8036H185.383C185.067 5.78396 184.751 5.82796 184.453 5.93293C184.155 6.03791 183.881 6.20169 183.649 6.41442C183.216 6.91036 182.998 7.55568 183.042 8.2102C182.957 8.98971 183.16 9.77342 183.613 10.4158C183.894 10.6525 184.221 10.8309 184.573 10.9405C184.925 11.05 185.295 11.0886 185.663 11.0538H195.301C198.184 11.0538 198.018 9.17268 198.018 9.04828C198.029 8.74828 197.949 8.45181 197.787 8.19824H200.116V8.19345C201.884 8.13604 202.889 7.55552 202.889 6.43914V2.98474H201.956V6.44632H201.957Z" fill="#470054"/>
<path d="M213.369 3.49501C212.74 3.09141 211.992 2.90994 211.247 2.97988H205.279L205.436 3.48624C205.462 3.56916 205.514 3.64172 205.584 3.69326C205.654 3.74479 205.739 3.77257 205.826 3.77251H211.247C211.761 3.72595 212.275 3.85754 212.702 4.14491C212.863 4.31817 212.986 4.52352 213.061 4.74734C213.136 4.97116 213.163 5.20832 213.139 5.4431C213.213 6.01854 213.061 6.60027 212.715 7.06743C212.285 7.35782 211.765 7.48956 211.247 7.43982H203.858L204.012 7.91349C204.038 7.99605 204.089 8.06846 204.159 8.12052C204.229 8.17258 204.313 8.20169 204.4 8.20375H211.243C211.634 8.2466 212.03 8.21117 212.407 8.09954C212.784 7.98791 213.135 7.80236 213.439 7.55386C213.885 6.85896 214.077 6.0331 213.984 5.21424C214.017 4.89997 213.979 4.58225 213.872 4.28464C213.765 3.98702 213.592 3.71715 213.365 3.49501" fill="#470054"/>
<path d="M191.569 11.9086H189.079L189.234 12.387C189.26 12.4692 189.312 12.541 189.382 12.5919C189.452 12.6428 189.536 12.6702 189.623 12.6701H192.113L191.958 12.1917C191.932 12.1097 191.88 12.0381 191.81 11.9874C191.74 11.9367 191.655 11.9093 191.569 11.9094" fill="#470054"/>
<path d="M123.342 1.89227H125.832L125.677 1.41382C125.651 1.33163 125.599 1.25986 125.529 1.20895C125.459 1.15804 125.374 1.13064 125.287 1.13074H122.797L122.951 1.60919C122.978 1.69116 123.03 1.76269 123.1 1.81343C123.17 1.86417 123.254 1.8915 123.341 1.89147" fill="#470054"/>
<path d="M130.12 9.29541H127.63L127.784 9.77386C127.811 9.85605 127.862 9.92782 127.933 9.97874C128.003 10.0296 128.087 10.057 128.174 10.0569H130.664L130.509 9.5785C130.483 9.49652 130.431 9.42499 130.361 9.37425C130.291 9.32351 130.206 9.29618 130.119 9.29621" fill="#470054"/>
<path d="M113.225 11.9086H110.735L110.89 12.387C110.916 12.4692 110.968 12.541 111.038 12.5919C111.108 12.6428 111.192 12.6702 111.279 12.6701H113.769L113.614 12.1917C113.588 12.1097 113.536 12.0381 113.466 11.9874C113.396 11.9367 113.311 11.9093 113.225 11.9094" fill="#470054"/>
<path d="M161.665 5.98852C161.682 6.19837 161.646 6.40919 161.559 6.60124C161.472 6.79328 161.337 6.96028 161.168 7.08657C160.704 7.34845 160.174 7.47116 159.642 7.43982C159.036 7.5026 158.425 7.37575 157.895 7.077C157.726 6.95278 157.591 6.78753 157.504 6.597C157.417 6.40648 157.381 6.197 157.398 5.98852V5.17676C157.38 4.95844 157.416 4.73908 157.503 4.53763C157.589 4.33618 157.724 4.15869 157.895 4.02051C158.387 3.73788 158.954 3.61128 159.52 3.65768C160.096 3.61102 160.673 3.73036 161.182 4.00137C161.353 4.14331 161.486 4.32453 161.57 4.52926C161.654 4.73399 161.686 4.956 161.664 5.17596L161.665 5.98852ZM161.859 3.45753C161.122 3.06906 160.291 2.89077 159.458 2.9424C158.638 2.87664 157.817 3.05992 157.105 3.4679C156.86 3.66559 156.667 3.9191 156.543 4.2068C156.418 4.4945 156.366 4.80786 156.389 5.12014V6.24769C156.386 6.62679 156.503 6.99728 156.725 7.30585C156.299 7.39997 155.863 7.44466 155.426 7.43902H154.664C153.291 7.42786 152.584 7.10331 152.584 6.44704V2.98626H151.648V6.44704C151.648 7.06185 151.016 7.3856 149.808 7.43344C149.219 7.47985 148.632 7.31676 148.153 6.97333V2.97908H147.171V8.92939C147.183 9.14238 147.141 9.35498 147.05 9.54825C146.959 9.74151 146.822 9.90942 146.65 10.037C146.359 10.2293 146.027 10.3507 145.68 10.3911C145.487 10.4156 145.292 10.4249 145.098 10.419C144.937 10.419 144.795 10.419 144.637 10.4094L144.724 10.7866C144.745 10.8767 144.796 10.9571 144.869 11.0143C144.942 11.0716 145.033 11.1024 145.126 11.1016L145.434 11.0976C146.094 11.1218 146.749 10.9665 147.327 10.6486C147.602 10.4778 147.824 10.235 147.97 9.94694C148.115 9.65887 148.178 9.33661 148.151 9.01551V7.91747C148.661 8.09719 149.199 8.19072 149.74 8.19418V8.20693H149.806H149.836H149.907V8.19896C150.707 8.23132 151.494 7.98791 152.135 7.50999C152.771 8.02761 153.587 8.27696 154.406 8.20454H154.578H154.658H155.419C156.118 8.2384 156.816 8.11803 157.463 7.85208C158.009 8.0915 158.601 8.21195 159.197 8.20534H159.76C160.504 8.24372 161.244 8.07144 161.894 7.70855C162.161 7.5219 162.374 7.26914 162.512 6.97539C162.65 6.68163 162.709 6.35708 162.682 6.03398V5.11695C162.709 4.79185 162.646 4.4656 162.501 4.17295C162.356 3.8803 162.134 3.63222 161.858 3.45514" fill="#470054"/>
<path d="M144.152 3.13542V6.17915C144.17 6.475 144.113 6.77069 143.984 7.03821C143.855 7.30572 143.66 7.5362 143.417 7.7078C142.844 8.04217 142.189 8.21401 141.525 8.20459C140.841 8.25258 140.155 8.17472 139.499 7.97493C139.126 7.8528 138.797 7.62395 138.554 7.31707C138.316 7.62282 137.991 7.85172 137.622 7.97493C137.001 8.16162 136.352 8.23934 135.704 8.20459C135.074 8.21165 134.451 8.07697 133.882 7.81067C133.882 7.81067 133.374 8.20459 131.621 8.20459C129.934 8.20459 129.356 7.74528 129.098 7.50526C128.427 8.00112 127.603 8.24725 126.768 8.2006H126.703C125.061 8.19023 124.49 7.7381 124.235 7.50127C123.565 7.99713 122.74 8.24326 121.906 8.19661H119.576C119.736 8.45092 119.816 8.74703 119.804 9.04666C119.804 9.17345 119.973 11.0545 117.088 11.0545H107.449C107.082 11.0888 106.712 11.05 106.359 10.9405C106.007 10.831 105.681 10.6529 105.399 10.4166C104.947 9.77359 104.744 8.9898 104.829 8.21017C104.784 7.55616 105.001 6.91095 105.433 6.41519C105.666 6.20234 105.94 6.03855 106.239 5.93371C106.537 5.82887 106.854 5.78514 107.17 5.80517H107.232C107.319 5.80392 107.404 5.83096 107.475 5.88219C107.545 5.93341 107.597 6.00603 107.622 6.08905C107.622 6.08905 107.702 6.34581 107.778 6.58584C107.288 6.56835 106.799 6.65479 106.345 6.83941C106.137 7.00064 105.969 7.20696 105.853 7.44261C105.738 7.67826 105.678 7.93698 105.679 8.19901C105.679 9.09689 105.727 10.2994 107.546 10.2994H116.943C118.034 10.2994 118.8 10.0602 118.8 9.11763C118.813 8.96425 118.781 8.8105 118.707 8.67495C118.634 8.5394 118.523 8.42783 118.387 8.3537C117.977 8.21727 117.544 8.16491 117.113 8.1998H112.955C112.868 8.20125 112.783 8.17467 112.712 8.12406C112.642 8.07345 112.59 8.00153 112.564 7.91911L112.409 7.43588H121.586C121.672 7.43588 121.755 7.43588 121.838 7.43588C123.091 7.3984 123.743 7.07305 123.743 6.44629V2.98551H124.679V6.44629C124.68 6.60487 124.729 6.75955 124.82 6.88983C124.911 7.02012 125.04 7.11988 125.189 7.17592C125.669 7.36598 126.184 7.45478 126.701 7.43668C127.954 7.3992 128.605 7.07385 128.605 6.44709V2.98631H129.541V6.44709C129.541 7.11213 130.264 7.43668 131.667 7.44066C132.2 7.46561 132.733 7.39483 133.241 7.23174C133.053 6.91346 132.961 6.54854 132.975 6.17995L132.961 3.13781L133.98 2.8946V6.04678C133.962 6.25945 134.001 6.47302 134.092 6.66612C134.184 6.85923 134.325 7.02512 134.501 7.14722C135.152 7.52661 135.922 7.6525 136.661 7.50047C137.596 7.3673 138.07 6.97657 138.07 6.36256V3.5437H139.039V6.36017C139.039 6.97338 139.511 7.36411 140.444 7.49808C141.185 7.65617 141.959 7.53268 142.613 7.152C142.787 7.02752 142.926 6.85996 143.016 6.66587C143.105 6.47177 143.143 6.25784 143.123 6.04519V2.89221L144.152 3.13542Z" fill="#470054"/>
<path d="M177.234 3.82995L175.367 3.29488C174.872 3.19744 174.397 3.01991 173.96 2.76939C173.857 2.65 173.782 2.50939 173.74 2.3577C173.698 2.20601 173.691 2.04703 173.719 1.89223L173.731 1.71999C173.732 1.57813 173.765 1.43829 173.828 1.31097C173.891 1.18364 173.982 1.07213 174.095 0.984771C174.494 0.806452 174.932 0.731028 175.369 0.765483H178.512L178.267 0.00155908H175.356C174.636 -0.0514924 173.914 0.0765918 173.258 0.373953C173.054 0.50951 172.889 0.695003 172.778 0.9125C172.667 1.13 172.615 1.37214 172.626 1.61553L172.603 2.16893C172.569 2.51994 172.669 2.87079 172.882 3.15294C173.138 3.44048 173.477 3.64379 173.852 3.73585L177.043 4.71269C177.686 4.94154 178.206 5.07551 178.206 6.16159C178.231 6.35753 178.201 6.55636 178.119 6.73656C178.038 6.91676 177.909 7.07144 177.745 7.18387C177.141 7.40467 176.496 7.49255 175.854 7.44144H169.489V2.84195H166.838C166.727 2.84594 166.592 2.84992 166.47 2.86747C165.97 2.92815 165.496 3.12496 165.101 3.43616C164.706 3.74737 164.405 4.16087 164.232 4.63106C164.058 5.10124 164.019 5.60982 164.119 6.10068C164.218 6.59153 164.452 7.04558 164.795 7.41273C165.136 7.77688 165.578 8.03314 166.066 8.14954C166.304 8.20788 166.549 8.23469 166.795 8.22928L167.417 8.20138V7.44064L166.799 7.41114C166.55 7.39516 166.306 7.3306 166.082 7.22114C165.858 7.11168 165.658 6.95946 165.494 6.77321C165.272 6.53358 165.121 6.23802 165.058 5.91892C164.994 5.59983 165.021 5.26953 165.134 4.96426C165.247 4.65899 165.442 4.39053 165.699 4.18833C165.956 3.98613 166.263 3.858 166.589 3.81799C166.669 3.80682 166.744 3.80842 166.838 3.80443H168.51V8.92941C168.522 9.14238 168.48 9.35494 168.389 9.54818C168.298 9.74142 168.161 9.90934 167.989 10.037C167.698 10.2291 167.365 10.3502 167.018 10.3903C166.825 10.4155 166.631 10.4251 166.436 10.419C166.275 10.419 166.133 10.419 165.975 10.4094L166.062 10.7866C166.083 10.8767 166.134 10.9571 166.207 11.0144C166.28 11.0717 166.371 11.1024 166.464 11.1016L166.773 11.0976C167.433 11.1215 168.088 10.9663 168.666 10.6486C168.941 10.4778 169.163 10.235 169.309 9.94697C169.454 9.65889 169.517 9.33663 169.49 9.01554V8.20377H176.048C176.918 8.26579 177.79 8.12516 178.595 7.7931C178.769 7.70186 178.921 7.57299 179.039 7.41595C179.156 7.25891 179.237 7.0777 179.275 6.88564C179.325 6.52831 179.345 6.16743 179.336 5.80674C179.357 5.58033 179.331 5.35192 179.258 5.13637C179.185 4.92082 179.067 4.72294 178.912 4.55559C178.409 4.20382 177.84 3.95695 177.238 3.82995" fill="#470054"/>
<path d="M153.163 9.29541H150.673L150.827 9.77386C150.853 9.85605 150.905 9.92782 150.975 9.97874C151.045 10.0296 151.13 10.057 151.217 10.0569H153.707L153.552 9.5785C153.525 9.49652 153.473 9.42499 153.403 9.37425C153.333 9.32351 153.249 9.29618 153.162 9.29621" fill="#470054"/>
</g>
<defs>
<clipPath id="clip0_12884_15011">
<rect width="214" height="38" fill="white"/>
</clipPath>
</defs>
</svg>
